<svg xmlns="http://www.w3.org/2000/svg" viewBox="0 0 109.5 124.5">
  <path d="M95.6 28.2c-.1-.6-.6-1-1.1-1-.5 0-10.3-.8-10.3-.8s-6.8-6.8-7.5-7.5c-.7-.7-2.1-.5-2.6-.3 0 0-1.4.4-3.7 1.1-2.2-6.4-6.1-12.2-12.9-12.2h-.6c-1.9-2.5-4.3-3.6-6.3-3.6-15.6 0-23.1 19.5-25.4 29.4-6.1 1.9-10.4 3.2-10.9 3.4-3.4 1.1-3.5 1.2-3.9 4.4C10 44.1 0 122.6 0 122.6l75.6 13.1 40.2-9.9S95.7 28.8 95.6 28.2zM67.3 21.6l-5.7 1.8c0-3-.4-7.3-1.8-10.9 4.4.8 6.6 5.8 7.5 9.1zm-9.7 3l-12.3 3.8c1.2-4.6 3.4-9.2 7.7-12.2.5 2.9.6 6.4.6 8.4h-.1l.1.1zm-6.5-14.5c.5 0 1 .2 1.5.5-5.2 2.4-10.8 8.5-13.2 20.7l-9.8 3C32.3 25.1 38.3 10.1 51.1 10.1z" fill="#95BF47"/>
  <path d="M94.5 27.2c-.5 0-10.3-.8-10.3-.8s-6.8-6.8-7.5-7.5c-.3-.3-.6-.4-1-.4l-5.6 114.1 40.2-9.9S95.7 28.8 95.6 28.2c-.1-.6-.6-1-1.1-1" fill="#5E8E3E"/>
  <path d="M63.1 43.9l-4.9 14.5s-4.3-2.3-9.6-2.3c-7.7 0-8.1 4.8-8.1 6.1 0 6.6 17.4 9.2 17.4 24.7 0 12.2-7.7 20.1-18.2 20.1-12.5 0-18.9-7.8-18.9-7.8l3.3-11s6.6 5.6 12.1 5.6c3.6 0 5.1-2.8 5.1-4.9 0-8.7-14.2-9.1-14.2-23.3 0-12 8.6-23.6 26-23.6 6.7-.1 10 1.9 10 1.9" fill="#fff"/>
</svg>