<svg xmlns="http://www.w3.org/2000/svg" viewBox="0 0 120 40" fill="none">
  <path d="M24.5 8c2.8 2.4 6.4 3.8 10.2 3.8v7.4c-3.6-.1-7-1.2-9.8-3.2v14.6c0 7.3-5.9 13.2-13.2 13.2-2.7 0-5.2-.8-7.3-2.2 2.4 2.6 5.8 4.2 9.6 4.2 7.3 0 13.2-5.9 13.2-13.2V18c2.8 2 6.2 3.1 9.8 3.2v-7.4c-1.8-.4-3.5-1.1-5-2.1-2.1-1.4-3.7-3.5-4.5-5.9h-3z" fill="#FF004F"/>
  <path d="M22.2 8c-.8-2.4-2.4-4.5-4.5-5.9C19.2 3.9 20.7 5.8 22.2 8z" fill="#FF004F"/>
  <path d="M4.4 31.8c-1.5-1.9-2.4-4.2-2.4-6.8 0-6 4.8-10.8 10.8-10.8 1.1 0 2.2.2 3.2.5v7.5c-1-.3-2.1-.5-3.2-.5-4.2 0-7.5 3.4-7.5 7.5 0 1.2.3 2.3.7 3.3-.6-.2-1.1-.4-1.6-.7z" fill="#00F2EA"/>
  <text x="42" y="28" font-family="Arial, Helvetica, sans-serif" font-size="14" font-weight="700" fill="#1B2A4A">TikTok Shop</text>
</svg>
