<svg xmlns="http://www.w3.org/2000/svg" viewBox="0 0 140 40" fill="none">
  <rect x="2" y="6" width="28" height="28" rx="4" fill="#96588A"/>
  <path d="M8 16c0-1 .8-2 1.8-2s2 1 2 2c0 2-1 5-2 5s-1.8-3-1.8-5zm5 0c0-1 .8-2 1.8-2s2 1 2 2c0 2-1 5-2 5s-1.8-3-1.8-5z" fill="white"/>
  <path d="M22 16c-.5 2.5-1.5 4-2.5 4s-1.5-1-1.5-2c0-1.5 1.5-3 3-3 .4 0 .7.1 1 .3v.7z" fill="white"/>
  <text x="36" y="27" font-family="Arial, Helvetica, sans-serif" font-size="13" font-weight="700" fill="#1B2A4A">WooCommerce</text>
</svg>
